<!-- icon666.com - MILLIONS OF FREE VECTOR ICONS --><svg version="1.1" id="Capa_1" xmlns="http://www.w3.org/2000/svg" xmlns:xlink="http://www.w3.org/1999/xlink" x="0px" y="0px" viewBox="0 0 471.377 471.377" style="enable-background:new 0 0 471.377 471.377;" xml:space="preserve"><g><g><path d="M263.43,59.706l57.678-41.892c4.399-3.196,5.376-9.353,2.18-13.753c-3.196-4.401-9.356-5.375-13.753-2.181l-79.634,57.839 c-0.012,0.009-0.022,0.019-0.034,0.027c-0.049,0.036-0.093,0.077-0.141,0.113c-0.262,0.199-0.511,0.408-0.747,0.627 c-0.079,0.074-0.154,0.152-0.231,0.228c-0.208,0.207-0.406,0.42-0.592,0.642c-0.064,0.077-0.129,0.153-0.192,0.232 c-0.224,0.284-0.434,0.577-0.624,0.88c-0.012,0.018-0.026,0.034-0.037,0.052c-0.003,0.004-0.004,0.009-0.007,0.014 c-0.206,0.337-0.389,0.685-0.552,1.041c-0.037,0.08-0.067,0.161-0.101,0.242c-0.115,0.271-0.219,0.546-0.31,0.826 c-0.036,0.11-0.071,0.22-0.102,0.331c-0.083,0.289-0.151,0.582-0.207,0.877c-0.014,0.077-0.035,0.152-0.048,0.229 c-0.061,0.368-0.099,0.739-0.118,1.112c-0.004,0.089-0.002,0.178-0.004,0.267c-0.007,0.295-0.001,0.589,0.018,0.884 c0.007,0.106,0.016,0.21,0.026,0.316c0.031,0.312,0.077,0.623,0.138,0.932c0.013,0.065,0.021,0.13,0.035,0.195 c0.084,0.383,0.189,0.762,0.319,1.137c0.013,0.036,0.03,0.071,0.043,0.107c0.117,0.322,0.253,0.64,0.405,0.953 c0.021,0.043,0.034,0.089,0.056,0.131l47.925,95.132c2.447,4.857,8.37,6.811,13.223,4.363c4.857-2.447,6.811-8.367,4.363-13.223 L252.03,78.239c95.536,8.302,170.736,88.718,170.736,186.369c0,103.155-83.922,187.077-187.077,187.077 S48.612,367.763,48.612,264.608c0-5.438-4.409-9.846-9.846-9.846s-9.846,4.409-9.846,9.846 c0,114.013,92.757,206.769,206.769,206.769s206.769-92.757,206.769-206.769C442.458,160.002,364.371,73.302,263.43,59.706z" fill="#000000" style="--darkreader-inline-fill: var(--darkreader-background-000000, #000000); fill: rgb(255, 255, 255);" data-darkreader-inline-fill=""></path></g></g></svg>